<svg viewBox="0 0 24 24" xmlns="http://www.w3.org/2000/svg" xmlns:xlink="http://www.w3.org/1999/xlink"><linearGradient id="New_Gradient_Swatch_copy_4" gradientUnits="userSpaceOnUse" x1="3.76" x2="20.24" y1="20.24" y2="3.76"><stop offset="0" stop-color="#339"/><stop offset=".1" stop-color="#3c319b"/><stop offset=".26" stop-color="#542ba1"/><stop offset=".47" stop-color="#7c21ab"/><stop offset=".7" stop-color="#b313b9"/><stop offset=".97" stop-color="#f902ca"/><stop offset=".99" stop-color="#f0c"/></linearGradient><g id="Icon"><path d="m20 4.25h-16a1.76 1.76 0 0 0 -1.75 1.75v12a1.76 1.76 0 0 0 1.75 1.75h16a1.76 1.76 0 0 0 1.75-1.75v-12a1.76 1.76 0 0 0 -1.75-1.75zm-16 1.5h16s.07 0 .1 0l-7.93 7.06a.27.27 0 0 1 -.34 0l-7.93-7.02s.1-.04.1-.04zm16.25 12.25a.25.25 0 0 1 -.25.25h-16a.25.25 0 0 1 -.25-.25v-10.33l7.09 6.33a1.75 1.75 0 0 0 2.32 0l7.09-6.3z" fill="url(#New_Gradient_Swatch_copy_4)"/></g></svg>