<svg id="&#x421;&#x43B;&#x43E;&#x439;_1" enable-background="new 0 0 4000 4000" viewBox="0 0 4000 4000" xmlns="http://www.w3.org/2000/svg"><g fill="#333"><path d="m1905.012 1902.31c358.389 0 650-291.548 650-650 0-358.389-291.611-650-650-650s-650 291.611-650 650c0 358.452 291.611 650 650 650zm0-1040c215.059 0 390 174.941 390 390s-174.941 390-390 390-390-174.941-390-390 174.941-390 390-390z"/><path d="m1255.012 3202.31h650c71.792 0 130-58.145 130-130 0-71.729-58.208-130-130-130h-650c-71.729 0-130-58.271-130-130 0-215.059 174.941-390 390-390h780c125.684 0 244.385 61.191 317.573 163.643 41.768 58.398 122.891 71.855 181.353 30.215 58.398-41.768 71.982-122.954 30.215-181.416-121.875-170.562-319.668-272.441-529.141-272.441h-780c-358.389 0-650 291.611-650 650 0 215.057 174.941 389.999 390 389.999z"/><path d="m3242.971 2590.522-492.07 493.213-233.594-233.657c-50.781-50.781-133.047-50.781-183.828 0-50.781 50.718-50.781 133.047 0 183.828l325.635 325.698c24.375 24.375 57.446 38.086 91.914 38.086h.063c34.468 0 67.603-13.711 91.978-38.213l583.984-585.317c50.654-50.845 50.591-133.11-.254-183.892-50.845-50.654-133.174-50.527-183.828.254z"/></g></svg>